<svg viewBox="0 0 750 500" xmlns="http://www.w3.org/2000/svg" xmlns:xlink="http://www.w3.org/1999/xlink" xml:space="preserve" overflow="hidden"><g id="BACKGROUND"><rect x="0" y="0" width="750" height="500" fill="#D1DFF8"/></g><g id="OBJECTS"><g><g><rect x="34.385" y="372.875" width="66.299" height="18.089" fill="#414156"/><g><path d="M27.614 377.051 27.614 430.961 107.456 430.961 107.456 377.051 27.614 377.051ZM67.535 387.964C64.483 387.964 61.868 386.097 60.766 383.444L74.305 383.444C73.202 386.098 70.587 387.964 67.535 387.964Z" fill="#63A0A5"/><rect x="35.099" y="401.065" width="16.218" height="7.173" fill="#FFFFFF"/></g></g><g><rect x="121.534" y="365.139" width="8.823" height="25.826" fill="#414156"/><rect x="132.702" y="365.139" width="8.823" height="25.826" fill="#414156"/><rect x="143.87" y="365.139" width="8.823" height="25.826" fill="#414156"/><rect x="155.038" y="365.139" width="8.823" height="25.826" fill="#414156"/><rect x="166.207" y="365.139" width="8.823" height="25.826" fill="#414156"/><rect x="177.375" y="365.139" width="8.823" height="25.826" fill="#414156"/><g><path d="M114.762 377.051 114.762 430.961 194.604 430.961 194.604 377.051 114.762 377.051ZM154.683 387.964C151.631 387.964 149.016 386.097 147.914 383.444L161.452 383.444C160.35 386.098 157.736 387.964 154.683 387.964Z" fill="#63A0A5"/><rect x="122.248" y="401.065" width="16.218" height="7.173" fill="#FFFFFF"/></g></g><rect x="0" y="430.96" width="750" height="69.04" fill="#B4C7EF"/><g><g><path d="M298.01 39.035 54.208 39.035 54.208 39.035C54.208 30.394 61.213 23.389 69.855 23.389L282.364 23.389C291.005 23.389 298.01 30.394 298.01 39.035L298.01 39.035Z" fill="#FFFFFF"/><g><line x1="93.416" y1="23.389" x2="93.416" y2="0" stroke="#FFFFFF" stroke-miterlimit="10" fill="none"/><line x1="258.802" y1="23.389" x2="258.802" y2="0" stroke="#FFFFFF" stroke-miterlimit="10" fill="none"/></g></g><g><path d="M695.792 39.035 451.99 39.035 451.99 39.035C451.99 30.394 458.995 23.389 467.637 23.389L680.146 23.389C688.787 23.389 695.792 30.394 695.792 39.035L695.792 39.035Z" fill="#FFFFFF"/><g><line x1="491.198" y1="23.389" x2="491.198" y2="0" stroke="#FFFFFF" stroke-miterlimit="10" fill="none"/><line x1="656.584" y1="23.389" x2="656.584" y2="0" stroke="#FFFFFF" stroke-miterlimit="10" fill="none"/></g></g></g><g><rect x="35.673" y="283.421" width="405.515" height="9.062" fill="#849BCB"/><rect x="35.673" y="283.421" width="66.188" height="9.062" fill="#FFFFFF"/><line x1="41.98" y1="292.483" x2="41.98" y2="430.96" stroke="#FFFFFF" stroke-width="3" stroke-miterlimit="10" fill="none"/><line x1="95.802" y1="292.483" x2="95.802" y2="430.96" stroke="#FFFFFF" stroke-width="3" stroke-miterlimit="10" fill="none"/><line x1="431.921" y1="292.483" x2="431.921" y2="430.96" stroke="#849BCB" stroke-width="3" stroke-miterlimit="10" fill="none"/><line x1="368.475" y1="292.483" x2="368.475" y2="430.96" stroke="#849BCB" stroke-width="3" stroke-miterlimit="10" fill="none"/></g><g><path d="M56.72 72.56C41.07 72.56 28.38 85.25 28.38 100.9 28.38 116.55 41.07 129.24 56.72 129.24 72.37 129.24 85.06 116.55 85.06 100.9 85.06 85.25 72.37 72.56 56.72 72.56ZM56.72 122.76C44.65 122.76 34.86 112.97 34.86 100.9 34.86 88.83 44.65 79.04 56.72 79.04 68.79 79.04 78.58 88.83 78.58 100.9 78.58 112.97 68.79 122.76 56.72 122.76Z" fill="#FFFFFF"/><path d="M56.721 83.62 56.721 100.64 65.226 109.145" stroke="#FFFFFF" stroke-linecap="round" stroke-miterlimit="10" fill="none"/></g><g><g><rect x="363.901" y="25.295" width="154.574" height="234.416" fill="#414156" transform="matrix(-1.83697e-16 1 -1 -1.83697e-16 583.691 -298.685)"/><rect x="329.98" y="71.216" width="222.416" height="142.574" fill="#63A0A5"/></g><g><g><path d="M360.63 199.548 347.426 196.01 343.888 182.806 353.554 173.14 366.758 176.678 370.296 189.882 360.63 199.548ZM348.243 195.194 360.332 198.433 369.182 189.584 365.943 177.495 353.854 174.256 345.004 183.105 348.243 195.194Z" fill="#FFFFFF"/></g><g><rect x="362.791" y="167.993" width="24.305" height="1" fill="#FFFFFF" transform="matrix(0.7072 -0.7071 0.7071 0.7072 -9.3347 314.448)"/></g><g><circle cx="369.793" cy="189.734" r="2.232" fill="#FFFFFF"/></g><g><circle cx="366.35" cy="177.087" r="2.232" fill="#FFFFFF"/></g><g><circle cx="383.537" cy="159.9" r="2.232" fill="#FFFFFF"/></g><g><g><path d="M366.06 130.465 352.857 126.927 349.319 113.723 358.985 104.057 372.188 107.595 375.726 120.799 366.06 130.465ZM353.673 126.112 365.761 129.351 374.611 120.502 371.372 108.414 359.284 105.175 350.434 114.024 353.673 126.112Z" fill="#FFFFFF"/></g><g><path d="M424.122 159.63 396.405 152.203 388.977 124.485 409.268 104.195 436.986 111.622 444.413 139.34 424.122 159.63ZM397.221 151.386 423.823 158.514 443.298 139.04 436.17 112.437 409.567 105.309 390.092 124.783 397.221 151.386Z" fill="#FFFFFF"/></g><g><rect x="381.852" y="115.188" width="1" height="14.908" fill="#FFFFFF" transform="matrix(0.2672 -0.9636 0.9636 0.2672 161.995 458.316)"/></g><g><circle cx="396.934" cy="151.673" r="2.232" fill="#FFFFFF"/></g><g><circle cx="389.535" cy="124.634" r="2.232" fill="#FFFFFF"/></g><g><path d="M375.169 118.419C376.402 118.419 377.401 119.418 377.401 120.651 377.401 121.884 376.402 122.883 375.169 122.883 373.936 122.883 372.937 121.884 372.937 120.651 372.937 119.418 373.936 118.419 375.169 118.419Z" fill="#FFFFFF"/></g><g><path d="M409.587 102.685C410.82 102.685 411.819 103.684 411.819 104.917 411.819 106.15 410.82 107.149 409.587 107.149 408.354 107.149 407.355 106.15 407.355 104.917 407.355 103.684 408.354 102.685 409.587 102.685Z" fill="#FFFFFF"/></g><g><circle cx="371.319" cy="108.466" r="2.232" fill="#FFFFFF"/></g><g><circle cx="365.496" cy="129.68" r="2.232" fill="#FFFFFF"/></g><g><path d="M349.877 111.701C351.11 111.701 352.109 112.7 352.109 113.933 352.109 115.166 351.11 116.165 349.877 116.165 348.644 116.165 347.645 115.166 347.645 113.933 347.645 112.7 348.644 111.701 349.877 111.701Z" fill="#FFFFFF"/></g><g><path d="M443.625 136.677C444.858 136.677 445.857 137.676 445.857 138.909 445.857 140.142 444.858 141.141 443.625 141.141 442.392 141.141 441.393 140.142 441.393 138.909 441.393 137.676 442.393 136.677 443.625 136.677Z" fill="#FFFFFF"/></g></g></g><g><line x1="406.382" y1="198.433" x2="443.327" y2="198.433" stroke="#FFFFFF" stroke-width="3" stroke-miterlimit="10" fill="none"/><line x1="406.382" y1="191.965" x2="443.327" y2="191.965" stroke="#FFFFFF" stroke-width="3" stroke-miterlimit="10" fill="none"/><line x1="406.382" y1="185.498" x2="443.327" y2="185.498" stroke="#FFFFFF" stroke-width="3" stroke-miterlimit="10" fill="none"/><line x1="406.382" y1="179.031" x2="424.854" y2="179.031" stroke="#FFFFFF" stroke-width="3" stroke-miterlimit="10" fill="none"/></g><g><line x1="347.886" y1="90.565" x2="419.188" y2="90.565" stroke="#FFFFFF" stroke-width="3" stroke-miterlimit="10" fill="none"/><line x1="347.886" y1="84.047" x2="366.358" y2="84.047" stroke="#FFFFFF" stroke-width="3" stroke-miterlimit="10" fill="none"/></g><g><g><path d="M527.554 93.852C527.554 107.286 513.103 118.177 513.103 118.177 513.103 118.177 498.651 107.286 498.651 93.852" stroke="#FFFFFF" stroke-miterlimit="10" fill="none"/><line x1="501.835" y1="105.135" x2="524.371" y2="105.135" stroke="#FFFFFF" stroke-miterlimit="10" fill="none"/></g><g><path d="M498.651 191.153C498.651 177.719 513.103 166.828 513.103 166.828 513.103 166.828 527.554 177.719 527.554 191.153" stroke="#FFFFFF" stroke-miterlimit="10" fill="none"/><line x1="524.371" y1="179.87" x2="501.835" y2="179.87" stroke="#FFFFFF" stroke-miterlimit="10" fill="none"/></g><g><path d="M527.554 142.503C527.554 155.937 513.103 166.828 513.103 166.828 513.103 166.828 498.651 155.937 498.651 142.503 498.651 129.069 513.103 118.178 513.103 118.178 513.103 118.178 527.554 129.068 527.554 142.503Z" stroke="#FFFFFF" stroke-miterlimit="10" fill="none"/><g><line x1="501.835" y1="130.829" x2="524.371" y2="130.829" stroke="#FFFFFF" stroke-miterlimit="10" fill="none"/><line x1="501.835" y1="154.176" x2="524.371" y2="154.176" stroke="#FFFFFF" stroke-miterlimit="10" fill="none"/><line x1="498.651" y1="142.503" x2="527.554" y2="142.503" stroke="#FFFFFF" stroke-miterlimit="10" fill="none"/></g></g></g><g><rect x="449.822" y="92.372" width="22.432" height="22.432" fill="#FFCE6C"/><circle cx="461.038" cy="92.436" r="1.871" fill="#414156"/></g><g><rect x="461.038" y="148.202" width="22.432" height="22.432" fill="#FF9B17"/><circle cx="472.254" cy="148.266" r="1.871" fill="#414156"/></g></g><g><rect x="45.069" y="277.337" width="48" height="6.084" fill="#414156"/><line x1="51.96" y1="277.337" x2="51.96" y2="212.346" stroke="#414156" stroke-miterlimit="10" fill="none"/><path d="M55.406 225.535C55.406 227.438 53.863 228.98 51.961 228.98 50.059 228.98 48.516 227.437 48.516 225.535 48.516 223.632 50.059 222.089 51.961 222.089 53.863 222.089 55.406 223.632 55.406 225.535Z" fill="#414156"/><line x1="51.96" y1="225.535" x2="86.178" y2="225.535" stroke="#414156" stroke-miterlimit="10" fill="none"/><g><rect x="68.416" y="212.346" width="8.495" height="32.792" fill="#FFFFFF"/><circle cx="72.663" cy="255.021" r="14.849" fill="#FFFFFF"/><path d="M84.74 255.02C84.74 261.69 79.34 267.1 72.66 267.1 65.99 267.1 60.58 261.69 60.58 255.02 60.58 253.86 60.74 252.73 61.05 251.67L84.27 251.67C84.58 252.73 84.74 253.86 84.74 255.02Z" fill="#FF9B17"/></g><rect x="65.238" y="222.089" width="14.851" height="6.891" fill="#414156"/></g><g><g><rect x="225.01" y="277.337" width="48" height="6.084" fill="#414156" transform="matrix(-1 -1.22465e-16 1.22465e-16 -1 498.02 560.757)"/><line x1="266.119" y1="277.337" x2="266.119" y2="202.346" stroke="#414156" stroke-miterlimit="10" fill="none"/><path d="M262.673 215.535C262.673 217.438 264.216 218.98 266.119 218.98 268.022 218.98 269.564 217.437 269.564 215.535 269.564 213.632 268.021 212.089 266.119 212.089 264.216 212.089 262.673 213.632 262.673 215.535Z" fill="#414156"/><line x1="266.119" y1="215.535" x2="231.901" y2="215.535" stroke="#414156" stroke-miterlimit="10" fill="none"/><g><rect x="241.406" y="199.346" width="8.02" height="34.624" fill="#FFFFFF"/><circle cx="245.416" cy="242.021" r="14.849" fill="#FFFFFF"/><path d="M233.339 242.02C233.339 248.69 238.739 254.1 245.419 254.1 252.089 254.1 257.499 248.69 257.499 242.02 257.499 240.86 257.339 239.73 257.029 238.67L233.809 238.67C233.499 239.73 233.339 240.86 233.339 242.02Z" fill="#89EEF2"/></g><rect x="237.99" y="212.089" width="14.851" height="6.891" fill="#414156" transform="matrix(-1 -1.22465e-16 1.22465e-16 -1 490.832 431.069)"/></g><g><g><path d="M252.35 277.337 238.481 277.337 238.481 270.743 245.416 266.742 252.35 270.743Z" fill="#FFFFFF"/><path d="M245.416 266.742 241.875 266.742 241.875 268.771 245.416 268.771 248.957 268.771 248.957 266.742Z" fill="#414156"/></g><path d="M247.309 264.849C247.309 265.895 246.461 266.742 245.415 266.742 244.369 266.742 243.521 265.894 243.521 264.849 243.521 263.804 245.415 259.955 245.415 259.955 245.415 259.955 247.309 263.803 247.309 264.849Z" fill="#FF9B17"/></g></g><path d="M177.684 223.002 185.656 215.03 185.656 190.723 185.656 188.723 187.468 188.723C188.353 188.723 188.353 192.723 189.238 192.723 190.123 192.723 190.123 188.723 191.009 188.723 191.895 188.723 191.895 192.723 192.781 192.723 193.666 192.723 193.666 188.723 194.55 188.723 195.434 188.723 195.434 192.723 196.317 192.723 197.2 192.723 197.2 188.723 198.083 188.723 198.966 188.723 198.966 192.723 199.849 192.723 200.733 192.723 200.733 188.723 201.617 188.723 202.502 188.723 202.502 192.723 203.387 192.723 204.273 192.723 204.273 188.723 205.159 188.723 206.044 188.723 206.044 192.723 206.929 192.723 207.813 192.723 207.813 188.723 208.698 188.723 209.583 188.723 209.583 192.723 210.468 192.723 211.354 192.723 211.354 188.723 212.24 188.723 213.126 188.723 213.126 192.723 214.012 192.723 214.897 192.723 214.897 188.723 215.782 188.723 216.668 188.723 216.668 192.723 217.554 192.723 218.441 192.723 218.441 188.723 219.328 188.723 220.214 188.723 220.214 192.723 221.1 192.723 221.987 192.723 221.987 188.723 222.874 188.723 223.76 188.723 223.76 192.723 224.647 192.723 225.534 192.723 225.534 188.723 226.421 188.723 227.308 188.723 227.308 192.723 228.194 192.723 229.079 192.723 229.079 188.723 229.963 188.723 230.85 188.723 230.85 192.723 231.738 192.723 232.624 192.723 232.624 188.723 233.51 188.723 234.397 188.723 234.397 192.723 235.284 192.723 236.172 192.723 236.172 188.723 237.06 188.723 237.947 188.723 237.947 192.723 238.834 192.723 239.723 192.723 239.723 188.723 240.612 188.723 241.503 188.723 241.503 192.723 242.393 192.723 243.283 192.723 243.283 188.723 244.174 188.723L245.418 188.723 245.418 204.357" stroke="#FFFFFF" stroke-miterlimit="10" fill="none"/><g><g><path d="M155.197 229.216C153.199 236.838 157.759 244.637 165.381 246.634 173.003 248.631 180.802 244.072 182.799 236.45 184.796 228.828 180.237 221.029 172.615 219.032 164.993 217.034 157.195 221.594 155.197 229.216Z" fill="#FFFFFF"/><path d="M157.451 230.881C157.296 231.646 157.214 232.437 157.214 233.247 157.214 239.799 162.526 245.111 169.078 245.111 175.63 245.111 180.942 239.799 180.942 233.247 180.942 232.436 180.86 231.645 180.705 230.881L157.451 230.881Z" fill="#FFCE6C"/><g><rect x="175.279" y="217.121" width="4.812" height="11.762" fill="#FFFFFF" transform="matrix(-0.7494 -0.6621 0.6621 -0.7494 163.188 507.768)"/><rect x="176.597" y="218.148" width="7.604" height="3.564" fill="#414156" transform="matrix(-0.7494 -0.6621 0.6621 -0.7494 169.965 504.191)"/></g></g><g><line x1="152.444" y1="235.118" x2="185.711" y2="235.118" stroke="#414156" stroke-miterlimit="10" fill="none"/><g><rect x="168.578" y="235.118" width="1" height="48.303" fill="#414156"/></g><g><g><path d="M148.356 283.421 154.9 235.185 153.909 235.051 147.346 283.421Z" fill="#414156"/></g><g><path d="M190.809 283.421 184.247 235.051 183.255 235.185 189.799 283.421Z" fill="#414156"/></g></g></g></g><g><rect x="101.861" y="259.997" width="42.99" height="23.423" fill="#414156"/><g><g><path d="M119.788 280.676 119.788 280.676C118.262 280.676 117.026 279.439 117.026 277.914L117.026 254.575 122.55 254.575 122.55 277.914C122.551 279.439 121.314 280.676 119.788 280.676Z" fill="#FFFFFF"/><path d="M118.318 261.326 118.318 277.913C118.318 278.724 118.978 279.384 119.788 279.384 120.599 279.384 121.259 278.724 121.259 277.913L121.259 261.326 118.318 261.326Z" fill="#FF6B59"/><rect x="116.221" y="252.809" width="7.136" height="1.765" fill="#FFFFFF"/></g><g><path d="M109.053 280.676 109.053 280.676C107.527 280.676 106.291 279.439 106.291 277.914L106.291 254.575 111.815 254.575 111.815 277.914C111.815 279.439 110.578 280.676 109.053 280.676Z" fill="#FFFFFF"/><path d="M107.582 270.57 107.582 277.914C107.582 278.725 108.242 279.385 109.052 279.385 109.863 279.385 110.523 278.725 110.523 277.914L110.523 270.57 107.582 270.57Z" fill="#FF6B59"/><rect x="105.485" y="252.809" width="7.136" height="1.765" fill="#FFFFFF"/></g></g><rect x="99.455" y="256.236" width="47.802" height="3.762" fill="#414156"/></g><g><path d="M311.552 283.421 294.033 283.421 294.033 256.982C294.033 254.678 295.901 252.809 298.206 252.809L307.38 252.809C309.685 252.809 311.553 254.677 311.553 256.982L311.553 283.421Z" fill="#FF9B17"/><rect x="297.803" y="247.931" width="9.98" height="4.879" fill="#414156"/><rect x="294.033" y="262.01" width="17.519" height="14.257" fill="#FFFFFF"/></g><g><path d="M366.866 242.097 333.307 242.097 333.307 283.421 361.234 283.421 361.234 252.001Z" fill="#FFFFFF"/><g><g><line x1="333.307" y1="247.931" x2="337.346" y2="247.931" stroke="#ABC4ED" stroke-miterlimit="10" fill="none"/><line x1="333.307" y1="254.168" x2="337.346" y2="254.168" stroke="#ABC4ED" stroke-miterlimit="10" fill="none"/><line x1="333.307" y1="260.406" x2="337.346" y2="260.406" stroke="#ABC4ED" stroke-miterlimit="10" fill="none"/><line x1="333.307" y1="266.644" x2="337.346" y2="266.644" stroke="#ABC4ED" stroke-miterlimit="10" fill="none"/><line x1="333.307" y1="272.881" x2="337.346" y2="272.881" stroke="#ABC4ED" stroke-miterlimit="10" fill="none"/><line x1="333.307" y1="279.119" x2="337.346" y2="279.119" stroke="#ABC4ED" stroke-miterlimit="10" fill="none"/></g></g></g><g><rect x="123.356" y="102.685" width="138.367" height="7.84" fill="#FFFFFF"/><g><g><g><rect x="136.945" y="62.406" width="7.593" height="40.279" fill="#B4C7EF"/><rect x="136.945" y="94.842" width="7.593" height="2.733" fill="#FFFFFF"/></g><g><rect x="145.619" y="62.406" width="7.593" height="40.279" fill="#B4C7EF"/><rect x="145.619" y="94.842" width="7.593" height="2.733" fill="#FFFFFF"/></g><g><rect x="154.292" y="62.406" width="7.593" height="40.279" fill="#B4C7EF"/><rect x="154.292" y="94.842" width="7.593" height="2.733" fill="#FFFFFF"/></g><g><rect x="162.965" y="62.406" width="7.593" height="40.279" fill="#B4C7EF"/><rect x="162.965" y="94.842" width="7.593" height="2.733" fill="#FFFFFF"/></g><g><rect x="176.562" y="62.099" width="7.593" height="40.279" fill="#B4C7EF" transform="matrix(0.9677 -0.2519 0.2519 0.9677 -14.9004 48.087)"/><rect x="180.004" y="94.094" width="7.593" height="2.733" fill="#FFFFFF" transform="matrix(0.9677 -0.2519 0.2519 0.9677 -18.1208 49.3831)"/></g></g><g><g><g><path d="M219.698 98.353 210.277 85.165 210.277 68.322 204.219 68.322 204.219 85.165 194.798 98.353C193.503 100.166 194.799 102.685 197.027 102.685L217.469 102.685C219.697 102.685 220.993 100.166 219.698 98.353Z" fill="#B4C7EF"/></g><g><path d="M247.618 98.353 238.197 85.165 238.197 68.322 232.139 68.322 232.139 85.165 222.718 98.353C221.423 100.166 222.719 102.685 224.947 102.685L245.389 102.685C247.618 102.685 248.914 100.166 247.618 98.353Z" fill="#B4C7EF"/></g></g></g></g></g><g><g><rect x="225.75" y="335.396" width="125.077" height="95.564" fill="#FFFFFF"/><rect x="249.507" y="329.639" width="77.564" height="107.077" fill="#B4C7EF" transform="matrix(-1.83697e-16 1 -1 -1.83697e-16 671.467 94.889)"/><rect x="219.485" y="311.222" width="137.607" height="19.01" fill="#FFFFFF"/></g><rect x="234.751" y="381.584" width="107.077" height="3.188" fill="#849BCB"/><rect x="234.751" y="418.772" width="107.077" height="3.188" fill="#849BCB"/><path d="M258.679 378.219 251.362 367.977 251.362 354.896 246.657 354.896 246.657 367.977 239.34 378.219C238.334 379.627 239.341 381.584 241.071 381.584L256.947 381.584C258.679 381.584 259.685 379.627 258.679 378.219Z" fill="#FFFFFF"/><path d="M282.026 378.219 274.709 367.977 274.709 354.896 270.004 354.896 270.004 367.977 262.687 378.219C261.681 379.627 262.688 381.584 264.418 381.584L280.294 381.584C282.025 381.584 283.032 379.627 282.026 378.219Z" fill="#FFFFFF"/><g><path d="M333.413 418.772 320.362 418.772 320.362 399.076C320.362 397.359 321.754 395.968 323.47 395.968L330.304 395.968C332.021 395.968 333.412 397.36 333.412 399.076L333.412 418.772Z" fill="#849BCB"/><rect x="323.17" y="392.333" width="7.435" height="3.635" fill="#849BCB"/><rect x="320.362" y="402.822" width="13.051" height="10.621" fill="#FFFFFF"/></g><g><path d="M314.7 418.772 301.649 418.772 301.649 399.076C301.649 397.359 303.041 395.968 304.757 395.968L311.591 395.968C313.308 395.968 314.699 397.36 314.699 399.076L314.699 418.772Z" fill="#849BCB"/><rect x="304.457" y="392.333" width="7.435" height="3.635" fill="#849BCB"/><rect x="301.649" y="402.822" width="13.051" height="10.621" fill="#FFFFFF"/></g><g><path d="M295.987 418.772 282.936 418.772 282.936 399.076C282.936 397.359 284.328 395.968 286.044 395.968L292.878 395.968C294.595 395.968 295.986 397.36 295.986 399.076L295.986 418.772Z" fill="#849BCB"/><rect x="285.744" y="392.333" width="7.435" height="3.635" fill="#849BCB"/><rect x="282.936" y="402.822" width="13.051" height="10.621" fill="#FFFFFF"/></g></g><g><g><rect x="629.39" y="131.91" width="120.61" height="299.05" fill="#FFFFFF"/><rect x="616.317" y="106.677" width="133.683" height="19.054" fill="#FFFFFF"/></g><rect x="643.88" y="146.39" width="106.12" height="137.03" fill="#B4C7EF"/><g><g><path d="M750 295.54 750 294.54 643.38 294.54 643.38 419.35 750 419.35 750 418.35 644.38 418.35 644.38 295.54 750 295.54Z" fill="#D1DFF8"/></g></g><g><rect x="643.881" y="181.02" width="106.119" height="3.564" fill="#849BCB"/></g><rect x="643.881" y="229.495" width="106.119" height="3.564" fill="#849BCB"/><rect x="643.881" y="279.857" width="106.119" height="3.564" fill="#849BCB"/><g><g><rect x="650.366" y="157.548" width="42.99" height="23.423" fill="#849BCB"/><g><g><path d="M667.229 178.226 667.229 178.226C665.704 178.226 664.467 176.989 664.467 175.464L664.467 152.125 669.991 152.125 669.991 175.464C669.991 176.99 668.754 178.226 667.229 178.226Z" fill="#FFFFFF"/><rect x="663.661" y="150.36" width="7.136" height="1.765" fill="#FFFFFF"/></g><g><path d="M677.229 178.226 677.229 178.226C675.703 178.226 674.467 176.989 674.467 175.464L674.467 152.125 679.991 152.125 679.991 175.464C679.991 176.99 678.754 178.226 677.229 178.226Z" fill="#FFFFFF"/><rect x="673.661" y="150.36" width="7.136" height="1.765" fill="#FFFFFF"/></g><g><path d="M687.229 178.226 687.229 178.226C685.703 178.226 684.467 176.989 684.467 175.464L684.467 152.125 689.992 152.125 689.992 175.464C689.991 176.99 688.754 178.226 687.229 178.226Z" fill="#FFFFFF"/><rect x="683.661" y="150.36" width="7.136" height="1.765" fill="#FFFFFF"/></g><g><path d="M656.493 178.226 656.493 178.226C654.967 178.226 653.731 176.989 653.731 175.464L653.731 152.125 659.256 152.125 659.256 175.464C659.256 176.99 658.019 178.226 656.493 178.226Z" fill="#FFFFFF"/><rect x="652.925" y="150.36" width="7.136" height="1.765" fill="#FFFFFF"/></g></g><rect x="647.96" y="153.786" width="47.802" height="3.762" fill="#849BCB"/></g><g><g><rect x="718.352" y="156.282" width="7.593" height="40.279" fill="#849BCB" transform="matrix(-1.83697e-16 1 -1 -1.83697e-16 898.57 -545.727)"/><rect x="704.69" y="175.055" width="7.593" height="2.733" fill="#FFFFFF" transform="matrix(-1.83697e-16 1 -1 -1.83697e-16 884.907 -532.064)"/></g><g><rect x="718.352" y="148.04" width="7.593" height="40.279" fill="#849BCB" transform="matrix(-1.83697e-16 1 -1 -1.83697e-16 890.327 -553.97)"/><rect x="704.69" y="166.813" width="7.593" height="2.733" fill="#FFFFFF" transform="matrix(-1.83697e-16 1 -1 -1.83697e-16 876.665 -540.307)"/></g><g><rect x="718.352" y="139.797" width="7.593" height="40.279" fill="#849BCB" transform="matrix(-1.83697e-16 1 -1 -1.83697e-16 882.085 -562.212)"/><rect x="704.69" y="158.57" width="7.593" height="2.733" fill="#FFFFFF" transform="matrix(-1.83697e-16 1 -1 -1.83697e-16 868.422 -548.55)"/></g></g></g><g><rect x="651.91" y="226.283" width="25.114" height="3.183" fill="#849BCB"/><g><rect x="655.016" y="192.28" width="1" height="34.003" fill="#849BCB"/></g><path d="M657.318 199.18C657.318 200.176 656.511 200.983 655.515 200.983 654.519 200.983 653.712 200.176 653.712 199.18 653.712 198.184 654.519 197.377 655.515 197.377 656.511 197.377 657.318 198.185 657.318 199.18Z" fill="#849BCB"/><g><rect x="655.516" y="198.68" width="17.902" height="1" fill="#849BCB"/></g><g><rect x="664.125" y="192.28" width="4.445" height="17.157" fill="#FFFFFF"/><ellipse cx="666.347" cy="214.608" rx="7.769" ry="7.769" fill="#FFFFFF" transform="matrix(0.6096 -0.7927 0.7927 0.6096 90.0166 611.997)"/></g><rect x="662.462" y="197.378" width="7.77" height="3.605" fill="#849BCB"/></g><g><path d="M674.157 275.27 664.183 261.308 664.183 243.476 657.769 243.476 657.769 261.308 647.795 275.27C646.423 277.19 647.796 279.857 650.155 279.857L671.798 279.857C674.156 279.857 675.528 277.19 674.157 275.27Z" fill="#FFFFFF"/><path d="M709.225 275.27 699.251 261.308 699.251 243.476 692.837 243.476 692.837 261.308 682.863 275.27C681.492 277.19 682.864 279.857 685.223 279.857L706.866 279.857C709.225 279.857 710.597 277.19 709.225 275.27Z" fill="#FFFFFF"/><path d="M744.294 275.27 734.32 261.308 734.32 243.476 727.906 243.476 727.906 261.308 717.932 275.27C716.561 277.19 717.933 279.857 720.292 279.857L741.935 279.857C744.293 279.857 745.666 277.19 744.294 275.27Z" fill="#FFFFFF"/></g><g><g><g><g><rect x="695.693" y="192.956" width="5.067" height="15.376" fill="#FFFFFF"/><circle cx="698.227" cy="214.227" r="8.856" fill="#FFFFFF"/></g></g><g><g><rect x="715.921" y="192.956" width="5.067" height="15.376" fill="#FFFFFF"/><circle cx="718.454" cy="214.227" r="8.856" fill="#FFFFFF"/></g></g><g><g><rect x="736.149" y="192.956" width="5.067" height="15.376" fill="#FFFFFF"/><circle cx="738.682" cy="214.227" r="8.856" fill="#FFFFFF"/></g></g></g><path d="M750 200.213 750 197.213 680.797 197.213 680.797 200.213 683.847 200.213 683.847 226.495 680.797 226.495 680.797 229.495 750 229.495 750 226.495 686.847 226.495 686.847 200.213Z" fill="#849BCB"/></g></g><g><g><path d="M586.198 377.525C587.216 369.727 587.602 361.596 585.518 358.293 581.003 351.137 566.169 331.443 568.043 322.387 569.917 313.33 576.594 303.422 576.594 303.422 576.594 303.422 547.329 317.65 556.003 340.612 562.888 358.839 571.469 364.951 577.497 377.525L586.198 377.525Z" fill="#B4C7EF"/><path d="M583.21 367.061C583.144 371.476 583.123 374.914 583.125 377.525L591.47 377.525 591.47 373.683C591.47 373.683 596.465 346.021 594.159 341.411 591.854 336.801 584.17 326.494 584.554 319.929 584.938 313.364 589.653 294.539 589.653 294.539 589.653 294.539 570.77 316.952 572.644 329.116 574.519 341.281 583.402 354.292 583.21 367.061Z" fill="#849BCB"/><path d="M594.928 313.385C594.928 313.385 598.386 334.812 597.233 341.343 596.08 347.874 587.628 354.79 580.329 361.321 577.601 363.762 576.698 370.297 576.636 377.525L588.339 377.525C588.358 377.473 588.381 377.411 588.397 377.366 589.549 374.202 607.606 363.626 608.375 352.484 609.143 341.343 594.928 313.385 594.928 313.385Z" fill="#B4C7EF"/></g><path d="M597.033 431.673 570.196 431.673 565.345 375.124 601.075 375.124Z" fill="#63A0A5"/></g></g></g></svg>